<?xml version="1.0" standalone="no"?><!-- Generator: Gravit.io --><svg xmlns="http://www.w3.org/2000/svg" xmlns:xlink="http://www.w3.org/1999/xlink" style="isolation:isolate" viewBox="0 0 124.081 58.519" width="124.081" height="58.519"><path d=" M 23.547 58.519 L 124.081 58.519 L 124.081 34.089 L 43.175 34.089 L 23.547 58.519 Z " fill="rgb(4,151,78)"/><path d=" M 44.257 0.005 C 44.261 -0.001 42.687 0.646 40.529 3.33 L 28.582 18.205 L 28.582 27.067 C 28.582 29.389 29.472 30.471 29.472 30.471 L 14.679 30.471 C 14.679 30.471 15.6 29.389 15.6 27.083 L 15.6 18.205 L 3.764 3.449 C 1.616 0.771 0 0 0 0 L 15.005 0 C 15.005 0 15.435 1.505 17.005 3.908 L 22.004 11.556 C 22.017 11.573 22.168 11.551 22.175 11.556 L 27.223 3.908 C 28.802 1.519 29.237 0.005 29.237 0.005 L 44.257 0.005 Z " fill="rgb(255,255,255)"/><path d=" M 67.405 14.164 L 63.284 14.164 L 63.284 5.675 L 67.454 5.675 C 70.457 5.675 72.852 6.861 72.852 9.872 C 72.852 12.884 70.418 14.164 67.405 14.164 Z  M 73.956 0.007 L 49.343 0.007 C 49.343 0.007 50.277 1.09 50.277 3.4 L 50.277 27.108 C 50.277 29.426 49.343 30.47 49.343 30.47 L 64.143 30.47 C 64.143 30.47 63.246 29.388 63.249 27.071 L 63.255 19.701 L 73.954 19.701 C 80.742 19.701 85.868 16.211 85.868 9.878 C 85.869 3.535 80.933 0.007 73.956 0.007 Z " fill="rgb(255,255,255)"/><path d=" M 124.081 7.136 C 124.081 7.136 122.731 6.29 120.41 6.29 L 105.702 6.29 L 105.702 13.616 L 117.528 13.616 C 119.825 13.616 121.476 13.1 121.476 13.1 L 121.476 20.368 C 121.476 20.368 119.789 19.714 117.469 19.714 L 105.701 19.714 L 105.701 27.093 C 105.701 29.389 106.535 30.431 106.535 30.431 L 91.788 30.431 C 91.788 30.431 92.712 29.392 92.712 27.093 L 92.712 3.375 C 92.712 1.053 91.773 0.002 91.773 0.002 L 124.081 0.002 L 124.081 7.136 L 124.081 7.136 Z " fill="rgb(255,255,255)"/><path d=" M 54.836 50.597 C 57.494 50.597 59.283 49.056 59.283 46.326 C 59.283 44.006 57.707 42.234 55.298 42.234 L 53.436 42.234 L 53.368 50.597 L 54.836 50.597 Z  M 51.187 40.286 L 55.226 40.286 C 59.087 40.286 61.658 42.694 61.658 46.345 C 61.658 50.066 58.557 52.546 55.298 52.546 L 51.08 52.546 L 51.187 40.286 Z " fill="rgb(255,255,255)"/><path d=" M 64.012 40.286 L 66.172 40.286 L 66.155 42.376 L 63.994 42.376 L 64.012 40.286 Z  M 63.994 43.616 L 66.155 43.616 L 66.068 52.546 L 63.905 52.546 L 63.994 43.616 Z " fill="rgb(255,255,255)"/><path d=" M 68.937 43.616 L 71.098 43.616 L 71.098 45.245 L 71.117 45.282 C 71.542 44.253 72.091 43.403 73.19 43.368 C 73.402 43.368 73.615 43.403 73.827 43.456 L 73.473 45.528 C 73.296 45.493 73.119 45.458 72.96 45.458 C 72.126 45.458 71.524 46.077 71.081 47.019 L 71.028 52.546 L 68.848 52.546 L 68.937 43.616 Z " fill="rgb(255,255,255)"/><path d=" M 80.118 46.823 C 80.063 45.866 79.621 44.891 78.487 44.891 C 77.512 44.891 76.769 45.938 76.678 46.823 L 80.118 46.823 Z  M 76.573 48.347 C 76.591 49.57 77.14 51.058 78.629 51.058 C 79.479 51.058 80.152 50.492 80.703 49.906 L 81.942 51.041 C 81.003 52.086 79.764 52.795 78.309 52.795 C 76.042 52.795 74.413 50.918 74.413 48.117 C 74.413 45.744 75.884 43.369 78.487 43.369 C 81.003 43.369 82.174 45.228 82.174 48.348 L 76.573 48.348 L 76.573 48.347 Z " fill="rgb(255,255,255)"/><path d=" M 90.66 51.093 C 89.791 52.157 88.746 52.794 87.328 52.794 C 84.777 52.794 83.449 50.384 83.449 48.224 C 83.449 45.759 84.991 43.369 87.647 43.369 C 88.959 43.369 89.968 43.988 90.766 44.875 L 89.543 46.061 C 88.994 45.618 88.498 45.211 87.736 45.211 C 86.389 45.211 85.715 46.664 85.715 48.029 C 85.715 49.906 86.547 50.953 87.628 50.953 C 88.426 50.953 88.957 50.474 89.453 49.961 L 90.66 51.093 Z " fill="rgb(255,255,255)"/><path d=" M 96.861 52.05 L 96.134 52.439 C 95.568 52.759 95.053 52.794 94.787 52.794 C 93.298 52.794 92.359 52.015 92.359 50.118 C 92.359 49.712 92.359 48.755 92.378 47.975 L 92.431 45.245 L 91.227 45.245 L 91.227 43.616 L 92.431 43.651 L 92.502 40.462 L 94.663 40.462 L 94.592 43.651 L 96.577 43.616 L 96.577 45.245 L 94.592 45.245 L 94.539 47.868 C 94.522 48.755 94.522 49.569 94.522 50.225 C 94.522 50.811 94.716 51.163 95.248 51.163 C 95.62 51.163 95.938 50.952 96.24 50.739 L 96.861 52.05 Z " fill="rgb(255,255,255)"/><path d=" M 101.84 51.058 C 103.401 51.058 103.949 49.392 103.949 48.152 C 103.949 46.293 103.294 45.107 101.84 45.107 C 100.229 45.107 99.732 46.912 99.732 48.152 C 99.731 49.231 100.228 51.058 101.84 51.058 Z  M 101.84 43.368 C 104.676 43.368 106.111 45.44 106.111 48.081 C 106.111 50.614 104.534 52.794 101.84 52.794 C 98.934 52.794 97.57 50.614 97.57 48.081 C 97.57 45.724 99.218 43.368 101.84 43.368 Z " fill="rgb(255,255,255)"/></svg>